<?xml version="1.0" encoding="UTF-8"?>
<!DOCTYPE svg PUBLIC "-//W3C//DTD SVG 1.1//EN" "http://www.w3.org/Graphics/SVG/1.1/DTD/svg11.dtd">
<!-- Creator: CorelDRAW -->
<svg xmlns="http://www.w3.org/2000/svg" xml:space="preserve" width="6.82666in" height="6.82666in" style="shape-rendering:geometricPrecision; text-rendering:geometricPrecision; image-rendering:optimizeQuality; fill-rule:evenodd; clip-rule:evenodd"
viewBox="0 0 6.82666 6.82666"
 xmlns:xlink="http://www.w3.org/1999/xlink">
 <defs>
  <style type="text/css">
   <![CDATA[
    .fil2 {fill:none}
    .fil1 {fill:#00ACC1}
    .fil0 {fill:#26C6DA}
    .fil3 {fill:#80DEEA}
   ]]>
  </style>
 </defs>
 <g id="Layer_x0020_1">
  <metadata id="CorelCorpID_0Corel-Layer"/>
  <path class="fil0" d="M1.70699 0.853331l2.782 0 0.844024 0.844024 0 4.06264c0,0.117335 -0.0959961,0.213331 -0.213331,0.213331l-3.41269 0c-0.117335,0 -0.213331,-0.0959961 -0.213331,-0.213331l0 -4.69333c0,-0.117335 0.0959961,-0.213331 0.213331,-0.213331z"/>
  <path class="fil1" d="M5.33301 1.69735l-0.00352756 0 -0.627165 0c-0.117335,0 -0.213331,-0.0959961 -0.213331,-0.213331l0 -0.629402 0 -0.00129134 0.844024 0.844024z"/>
  <g id="_490152456">
   <rect id="_490151904" class="fil2" width="6.82666" height="6.82666"/>
   <rect id="_490152000" class="fil2" x="0.853331" y="0.853331" width="5.12" height="5.12"/>
  </g>
  <path class="fil3" d="M4.39589 2.68227c0.0655,0 0.118602,-0.0547441 0.118602,-0.122272 0,-0.0675276 -0.0531024,-0.122272 -0.118602,-0.122272l-1.96513 0c-0.0655,0 -0.118602,0.0547441 -0.118602,0.122272 0,0.0675276 0.0531024,0.122272 0.118602,0.122272l1.96513 0z"/>
  <path class="fil3" d="M4.39589 3.53559c0.0655,0 0.118602,-0.0547441 0.118602,-0.122272 0,-0.0675276 -0.0531024,-0.122276 -0.118602,-0.122276l-1.96513 0c-0.0655,0 -0.118602,0.054748 -0.118602,0.122276 0,0.0675276 0.0531024,0.122272 0.118602,0.122272l1.96513 0z"/>
  <path class="fil3" d="M4.39589 4.38891c0.0655,0 0.118602,-0.0547441 0.118602,-0.122272 0,-0.0675276 -0.0531024,-0.122272 -0.118602,-0.122272l-1.96513 0c-0.0655,0 -0.118602,0.0547441 -0.118602,0.122272 0,0.0675276 0.0531024,0.122272 0.118602,0.122272l1.96513 0z"/>
  <path class="fil3" d="M4.39589 5.24223c0.0655,0 0.118602,-0.0547441 0.118602,-0.122272 0,-0.0675276 -0.0531024,-0.122272 -0.118602,-0.122272l-1.96513 0c-0.0655,0 -0.118602,0.0547441 -0.118602,0.122272 0,0.0675276 0.0531024,0.122272 0.118602,0.122272l1.96513 0z"/>
 </g>
</svg>
