<svg xmlns="http://www.w3.org/2000/svg" xml:space="preserve" width="2048" height="2048" style="shape-rendering:geometricPrecision;text-rendering:geometricPrecision;image-rendering:optimizeQuality;fill-rule:evenodd;clip-rule:evenodd"><defs><style>.fil0{fill:#424242}</style></defs><g id="Layer_x0020_1"><g id="_292110960"><path id="_292110456" class="fil0" d="m601.77 1090.11 128.534 38.736c42.496 12.807 75.862 41.782 95.382 78.144 19.515 36.348 25.24 80.104 12.47 122.482l-104.785 347.693c-12.806 42.497-41.782 75.862-78.144 95.382-36.348 19.515-80.104 25.24-122.48 12.47l-128.532-38.736c-42.497-12.808-75.863-41.783-95.382-78.145-19.516-36.348-25.242-80.104-12.471-122.482l104.785-347.692c12.806-42.497 41.782-75.862 78.144-95.382 36.348-19.515 80.105-25.24 122.48-12.47zm64.788 128.809c5.048-16.929-4.582-34.745-21.511-39.794-16.928-5.048-34.745 4.584-39.793 21.512l-23.829 79.069c-5.048 16.929 4.583 34.744 21.512 39.792 16.927 5.05 34.744-4.582 39.792-21.51l23.83-79.069zm-264.277 85.861 375.705 116.921-18.282 51.192L384 1355.973l18.281-51.193z"/><path id="_292111032" d="M644.51 1139.1c36.704-50.156 76.396-82.225 123.083-95.632 46.736-13.42 98.2-7.491 158.211 18.414 57.852 24.973 109.458 50.558 154.495 72.886 74.843 37.104 130.289 64.593 165.088 64.593 45.967 0 62.744-70.713 62.744-287.899h64.001c0 265.468-33.89 351.9-126.745 351.9-49.431 0-110.67-30.361-193.337-71.344-43.547-21.59-93.445-46.327-151.495-71.386-45.888-19.809-83.439-24.86-115.462-15.664-32.073 9.21-60.893 33.361-89.08 71.882l-51.502-37.75z" style="fill:#424242;fill-rule:nonzero"/><path id="_292110672" class="fil0" d="M1281.25 256.165c66.206 0 126.148 26.838 169.538 70.228 36.28 36.28 60.981 84.132 68.106 137.54 66.124.053 125.993 26.88 169.34 70.228 43.391 43.39 70.23 103.332 70.23 169.538 0 66.203-26.839 126.147-70.229 169.538-43.39 43.39-103.332 70.228-169.538 70.228h-504.576c-66.205 0-126.148-26.838-169.538-70.228-43.391-43.39-70.23-103.332-70.23-169.538 0-66.206 26.839-126.148 70.23-169.538 43.39-43.392 103.332-70.23 169.538-70.23 9.735 0 19.5.623 29.246 1.827 6.8-54.144 31.653-102.673 68.345-139.365 43.392-43.39 103.335-70.228 169.538-70.228zM986.826 597.877h559.165v64.002H986.826v-64.002zm0 124.257h559.165v64.002H986.826v-64.002z"/></g></g><path style="fill:none" d="M0 0h2048v2048H0z"/></svg>